<svg xmlns="http://www.w3.org/2000/svg" viewBox="0 0 103.16 117"><defs><style>.cls-1{fill:#e44d26;}.cls-2{fill:#f16529;}.cls-3{fill:#fff;}.cls-4{fill:#ebebeb;}</style></defs><g id="レイヤー_2" data-name="レイヤー 2"><g id="レイヤー_1-2" data-name="レイヤー 1"><g id="レイヤー_2-2" data-name="レイヤー 2"><g id="shields"><polygon class="cls-1" points="51.52 117 9.39 105.3 0 0 103.16 0 93.77 105.29 51.52 117"/><polygon class="cls-2" points="85.72 98.58 93.75 8.61 51.58 8.61 51.58 108.05 85.72 98.58"/><polygon class="cls-3" points="51.62 34.44 82.77 34.44 83.93 21.52 51.62 21.52 51.58 21.52 19.23 21.52 22.72 60.58 51.58 60.58 51.62 60.58 67.48 60.58 65.98 77.33 51.58 81.22 51.58 81.22 51.56 81.22 37.18 77.34 36.26 67.04 23.3 67.04 25.11 87.32 51.56 94.66 51.62 94.64 51.62 94.64 78.05 87.32 81.6 47.67 51.62 47.67 51.58 47.67 34.53 47.67 33.35 34.44 51.58 34.44 51.62 34.44"/><polygon class="cls-4" points="51.58 81.22 51.58 81.22 51.58 81.22 51.56 81.22 37.18 77.34 36.26 67.04 23.3 67.04 25.11 87.32 51.56 94.66 51.58 94.65 51.58 81.22"/><polygon class="cls-4" points="51.58 60.58 51.58 47.67 51.58 47.67 34.53 47.67 33.35 34.44 51.58 34.44 51.58 34.44 51.58 21.52 51.58 21.52 19.23 21.52 22.72 60.58 51.58 60.58 51.58 60.58"/></g></g></g></g></svg>