<svg xmlns="http://www.w3.org/2000/svg" viewBox="0 0 328.89 373"><defs><style>.cls-1{fill:#dab92d;}.cls-2{fill:#ffd83a;}.cls-3{fill:#fff;}</style></defs><g id="レイヤー_2" data-name="レイヤー 2"><g id="shields"><polygon class="cls-1" points="164.24 373 29.93 335.71 0 0 328.89 0 298.93 335.66 164.24 373"/><polygon class="cls-2" points="273.27 314.29 298.88 27.45 164.44 27.45 164.44 344.46 273.27 314.29"/><polygon class="cls-3" points="171.86 68.62 171.86 193.13 213.03 193.13 213.51 193.13 208.73 246.53 171.86 256.49 171.86 299.25 247.22 278.37 258.52 151.96 213.03 151.96 213.03 109.8 262.13 109.8 262.27 109.8 265.95 68.62 171.86 68.62"/><polygon class="cls-3" points="115.33 68.62 121.55 248.88 108.88 245.87 106.2 213.72 72.66 213.72 78.42 278.37 153.8 299.3 153.8 68.62 115.33 68.62"/></g></g></svg>