<svg xmlns="http://www.w3.org/2000/svg" viewBox="0 0 262.41 314.82"><defs><style>.cls-1{fill:#282827;}.cls-2{fill:#efa91d;}.cls-3{fill:#f5c862;}.cls-4{fill:#fefefe;}</style></defs><g id="レイヤー_2" data-name="レイヤー 2"><g id="Layer_1" data-name="Layer 1"><path class="cls-1" d="M39.89,210.76c3.39-20.6,11.06-39.86,18.5-59.2,4.63-12,10.87-23.3,16.6-34.81,6.66-13.37,10.67-27.21,10.48-42.38-.19-14.73,1.09-29.44,5.33-43.71.7-2.34,1.54-4.65,2.46-6.91C99.56,8.17,111.35.82,127.93.06c11.87-.54,22.6,2.47,32,9.44,6.85,5.05,11.52,12,14.92,19.8a88.26,88.26,0,0,1,7.41,29.91c.66,10.59,1.92,21.16,1.4,31.82-.28,5.74,2,10.78,4.93,15.54,4.81,7.77,10.8,14.65,16.42,21.81,10.07,12.85,19.07,26.3,24.54,41.86s7.14,31.65,6.62,48c-1.32,2.89-1.18,6.07-1.4,9.1a23.1,23.1,0,0,1-18.19,21.24c-4.84,1-9.8.66-14.7.47-7.52-.3-12.45-4.47-15.53-11.08-2.67-5.72-2.84-11.86-2.94-18a220.61,220.61,0,0,0-1.41-32.1,216.08,216.08,0,0,0-10.19-45.79,312.39,312.39,0,0,0-16.4-39.56l3.1-2.5c6.68-5.39,7.35-10.84,2.22-17.77-2.23-3-5.3-5.07-8.21-7.31,6.12-8.88,6.48-18.28,2.14-27.9a11.48,11.48,0,0,0-11.1-7.17c-5,0-9.34,5.07-11,10.34a32.07,32.07,0,0,0-.52,16.67,26.6,26.6,0,0,0-14.61-.61c1.32-7,1.17-13.86-2.55-20.18C110,37.73,100.18,37.75,95.13,46S91,67.5,97.11,75.15c-3.2,2.69-6.59,5.16-9,8.7-3.92,5.76-4,10.44.22,16,1.64,2.21,3.6,4.17,5.41,6.25a241.59,241.59,0,0,1-12.17,26.41,314.42,314.42,0,0,0-18.25,42.81C59.14,187.2,55,199.07,53,211.57A16.26,16.26,0,0,0,39.89,210.76Z"/><path class="cls-2" d="M28.58,231.11c1.08-3.67,1.43-7.55,3.24-11,2.16-.29,2.43-2.58,3.92-3.66,7.69-5.54,16.77-4.15,22.33,3.6,5.14,7.18,8.88,15.15,12.72,23s8.37,14.78,15.91,19.32c2.62,1.58,4,4.7,7.11,5.55v0c-.07,1-.11,1.87,1.27,1.8h0l.54.68v0l.47.63a44.59,44.59,0,0,1,6.32,16.44c.62,7.18-.15,14.11-3.66,20.55-6,7.26-13.67,7.57-22,5.69S60.57,308.45,53,304.69c-6-3-12.26-3.54-18.64-4.12-7.54-.68-15-1.64-22.17-4.35a24.07,24.07,0,0,1-6.94-3.84c-4.37-3.61-6-8.08-4.54-13.65,2.07-7.68,1.57-15.33,0-23.06-.8-4-1.48-8.3.85-12.23,2.44-.76,4.09-2.82,6.48-3.8,5.1-2.11,10.48-3.07,15.82-4C26.78,235.08,28.31,234,28.58,231.11Z"/><path class="cls-2" d="M183.46,220c.1,6.15.27,12.29,2.94,18,3.08,6.61,8,10.78,15.53,11.08,4.9.19,9.86.53,14.7-.47a23.1,23.1,0,0,0,18.19-21.24c.22-3,.08-6.21,1.4-9.1a11.35,11.35,0,0,1,4.56,9.91c-.13,3.77-.31,7.56-.71,11.32-.43,4,1.6,6.37,4.79,8.36,4.5,2.81,9.08,5.56,12.77,9.5a16.77,16.77,0,0,1,4.57,8.86c.95,5.93-1.36,10.35-6.34,13.53s-10.34,4.88-15.73,6.77a37.24,37.24,0,0,0-16.86,11.23A57.05,57.05,0,0,1,211,308.87a35.9,35.9,0,0,1-24.29,5.7c-7.83-.84-13.15-5.2-15.62-12.8a38.19,38.19,0,0,1-.94-14.65,88.91,88.91,0,0,0,.45-10.56c.59-1.78.43-3.63.57-5.45,1-12.43,2.11-24.83,5.52-36.88C178.16,229.13,179.75,224.05,183.46,220Z"/><path class="cls-1" d="M170.63,276.56a88.91,88.91,0,0,1-.45,10.56,38.19,38.19,0,0,0,.94,14.65c-13.5,0-27-.15-40.5,0a87.1,87.1,0,0,0-31.89,6.29c3.51-6.44,4.28-13.37,3.66-20.55a150,150,0,0,0,32.13-.2A106.8,106.8,0,0,0,170.63,276.56Z"/><path class="cls-3" d="M93.81,267.94c-3.14-.85-4.49-4-7.11-5.55-7.54-4.54-12.13-11.58-15.91-19.32s-7.58-15.85-12.72-23c-5.56-7.75-14.64-9.14-22.33-3.6-1.49,1.08-1.76,3.37-3.92,3.66,1.2-4.4,4.19-7.25,8.07-9.34a16.26,16.26,0,0,1,13.15.81c5,4.26,8.31,9.76,11.13,15.59,2.49,5.15,5,10.31,7.6,15.38,3.28,6.3,7.21,12,13.31,16.12A26.36,26.36,0,0,1,93.81,267.94Z"/><path class="cls-3" d="M28.58,231.11c-.27,2.84-1.8,4-4.68,4.49-5.34,1-10.72,1.93-15.82,4-2.39,1-4,3-6.48,3.8,2.2-5.1,6.79-7.1,11.6-8.52C18.26,233.42,23.45,232.36,28.58,231.11Z"/><path class="cls-4" d="M93.81,267.94a26.36,26.36,0,0,0-8.73-9.28c-6.1-4.11-10-9.82-13.31-16.12-2.64-5.07-5.11-10.23-7.6-15.38-2.82-5.83-6.1-11.33-11.13-15.59,1.94-12.5,6.1-24.37,10.28-36.22a314.42,314.42,0,0,1,18.25-42.81,241.59,241.59,0,0,0,12.17-26.41c.67.45,1.38.85,2,1.35a64,64,0,0,0,16.13,9.25,15.38,15.38,0,0,0,11,.35,157.16,157.16,0,0,0,32.58-14.53,312.39,312.39,0,0,1,16.4,39.56,216.08,216.08,0,0,1,10.19,45.79,220.61,220.61,0,0,1,1.41,32.1c-3.71,4.05-5.3,9.13-6.74,14.23-3.41,12.05-4.57,24.45-5.52,36.88-.14,1.82,0,3.67-.57,5.45a106.8,106.8,0,0,1-36.11,10.78,150,150,0,0,1-32.13.2,44.59,44.59,0,0,0-6.32-16.44l-.47-.63v0l-.54-.68h0A2.08,2.08,0,0,0,93.8,268Z"/><path class="cls-2" d="M155.46,102.55a157.16,157.16,0,0,1-32.58,14.53,15.38,15.38,0,0,1-11-.35,64,64,0,0,1-16.13-9.25c-.63-.5-1.34-.9-2-1.35-1.81-2.08-3.77-4-5.41-6.25-4.18-5.59-4.14-10.27-.22-16,2.41-3.54,5.8-6,9-8.7a14.85,14.85,0,0,0,4.11-2.56l9.24-4.34,7-2a26.6,26.6,0,0,1,14.61.61l6.74,1.89,9.62,3.77c.94,1.56,2.67,1.77,4.16,2.4,2.91,2.24,6,4.3,8.21,7.31,5.13,6.93,4.46,12.38-2.22,17.77Z"/><path class="cls-4" d="M152.57,75c-1.49-.63-3.22-.84-4.16-2.4a19.12,19.12,0,0,0,.8-15.15c-.8-2.39-2-4.9-4.8-4.92-3,0-4.13,2.66-5,5.09-1.31,3.66-1.1,7.44-.61,11.21l-6.74-1.89a32.07,32.07,0,0,1,.52-16.67c1.7-5.27,6-10.39,11-10.34a11.48,11.48,0,0,1,11.1,7.17C159.05,56.69,158.69,66.09,152.57,75Z"/><path class="cls-4" d="M101.22,72.59a14.85,14.85,0,0,1-4.11,2.56C91,67.5,90.05,54.38,95.13,46s14.83-8.31,19.76.08c3.72,6.32,3.87,13.18,2.55,20.18l-7,2a19.8,19.8,0,0,0-1.11-12c-.86-1.93-2-3.79-4.35-3.78s-3.58,1.89-4.34,3.83A19.25,19.25,0,0,0,101.22,72.59Z"/><path class="cls-3" d="M93.8,268a2.08,2.08,0,0,1,1.27,1.8C93.69,269.83,93.73,268.91,93.8,268Z"/><path class="cls-3" d="M95.05,269.77l.54.68Z"/><path class="cls-3" d="M95.6,270.47l.47.63Z"/><path class="cls-1" d="M138.79,68.8c-.49-3.77-.7-7.55.61-11.21.88-2.43,2-5.12,5-5.09,2.84,0,4,2.53,4.8,4.92a19.12,19.12,0,0,1-.8,15.15Z"/><path class="cls-1" d="M101.22,72.59a19.25,19.25,0,0,1-.56-16.28c.76-1.94,2-3.81,4.34-3.83s3.49,1.85,4.35,3.78a19.8,19.8,0,0,1,1.11,12Z"/></g></g></svg>