<svg xmlns="http://www.w3.org/2000/svg" viewBox="0 0 61.97 61.97"><defs><style>.cls-1{fill:#567a9b;}.cls-2{fill:#f49d35;stroke-width:0.68px;}.cls-2,.cls-3{stroke:#fff;stroke-miterlimit:10;}.cls-3{fill:none;stroke-width:0.82px;}.cls-4,.cls-5{fill:#fff;}.cls-4{fill-rule:evenodd;}</style></defs><g id="レイヤー_2" data-name="レイヤー 2"><g id="レイヤー_1-2" data-name="レイヤー 1"><path class="cls-1" d="M52,10.2A29.55,29.55,0,1,0,51.77,52,29.58,29.58,0,0,0,52,10.2Z"/><path class="cls-1" d="M53,9.18A31,31,0,1,0,52.8,53,31,31,0,0,0,53,9.18Z"/><path class="cls-2" d="M50.09,53.11h0A29.35,29.35,0,0,0,16.33,5.48a15.16,15.16,0,0,1,14.6,25.83,14.51,14.51,0,0,0,19.16,21.8Z"/><circle class="cls-3" cx="31.04" cy="30.87" r="29.48"/><path class="cls-4" d="M26.7,12.37c-.07.9-.8,1.75-.91,2.69-.59,4.94-.29,4-.92,5.83a2.39,2.39,0,0,0-.3,1.24c-.06.92,1.33,2.51,1.6,4.17.72,3.4-1.47,8.05-3.23,2.58a10.84,10.84,0,0,1-1.18,3.43c-.31.38-.16-1.38.12-2.66.79-2.3,1.51-1.46,1.7-2.18s.93,3.17,1.4,2.6c.95-1.78.4-4.48-.5-6.29-.79-1.37-1.34-1.66-.4-3.32.63-1.88.17-3.76.86-5.59,2.23-4.81-.31-3.86-2.45-.9-.82.69-2.2.69-2.92,1.52A16.18,16.18,0,0,0,15,22c-1.08,2.78-1.2,5.63-1.77,8.43a3.18,3.18,0,0,1-1.94,2.84,14,14,0,0,0-2.94,3c-1.27,1.23,1.85-.32,2.31.07,1,.07,1.56,0,1,1.32s-7,4.77-2.14,1.29S6.26,37.39,7,37.1a4,4,0,0,1,.46-.82,15.87,15.87,0,0,1,4-4.42c.66-.47,1.78-8.09,2.24-9.44A41.8,41.8,0,0,1,19,14.48a13.54,13.54,0,0,1,2.72-1.32,7.1,7.1,0,0,1,3-2.64A1.59,1.59,0,0,1,26.7,12.37Z"/><ellipse class="cls-5" cx="21.11" cy="17.03" rx="1.04" ry="0.46" transform="translate(-5.84 20.05) rotate(-45.29)"/><path class="cls-4" d="M35.81,49.46c.07-.89.82-1.73.94-2.67.66-4.93.35-4,1-5.82a2.38,2.38,0,0,0,.32-1.23c.07-.92-1.3-2.53-1.54-4.19-.67-3.41,1.58-8,3.27-2.54A10.84,10.84,0,0,1,41,29.6c.32-.37.15,1.39-.16,2.66-.82,2.29-1.52,1.43-1.72,2.15s-.89-3.18-1.37-2.61c-1,1.76-.46,4.47.41,6.29.77,1.38,1.32,1.68.35,3.32-.66,1.88-.23,3.76-.94,5.58-2.3,4.78.25,3.86,2.43.93.84-.67,2.21-.65,2.95-1.47A16.18,16.18,0,0,0,47.62,40c1.11-2.77,1.28-5.61,1.89-8.41a3.18,3.18,0,0,1,2-2.81,13.54,13.54,0,0,0,3-3c1.28-1.2-1.86.3-2.32-.1-1-.08-1.56,0-1-1.33s7.12-4.66,2.16-1.26S56.6,24.75,55.85,25a3.75,3.75,0,0,1-.48.81,16.14,16.14,0,0,1-4,4.37c-.67.46-1.9,8-2.38,9.4a41.6,41.6,0,0,1-5.43,7.86,14,14,0,0,1-2.74,1.28,7.13,7.13,0,0,1-3,2.6A1.59,1.59,0,0,1,35.81,49.46Z"/><ellipse class="cls-5" cx="41.46" cy="44.89" rx="1.04" ry="0.46" transform="translate(-19.57 41.88) rotate(-44.45)"/></g></g></svg>